<svg viewBox="0 0 100 100" xmlns="http://www.w3.org/2000/svg">
      <defs>
        <linearGradient id="bg-grad-logo" x1="100%" y1="0%" x2="0%" y2="100%">
          <stop offset="0%" stop-color="#A7FFEB"/>
          <stop offset="100%" stop-color="#82B1FF"/>
        </linearGradient>
        <filter id="shadow" x="-20%" y="-20%" width="140%" height="140%">
            <feDropShadow dx="1" dy="2" stdDeviation="1.5" flood-color="#000000" flood-opacity="0.2"/>
        </filter>
        <linearGradient id="text-grad" x1="0%" y1="0%" x2="0%" y2="100%">
            <stop offset="0%" stop-color="#42A5F5" />
            <stop offset="100%" stop-color="#1A237E" />
        </linearGradient>
      </defs>

      <rect width="100" height="100" rx="20" fill="url(#bg-grad-logo)"/>
      
      <!-- Globe -->
      <g stroke="white" stroke-opacity="0.5" stroke-width="1.5" fill="none">
        <circle cx="50" cy="50" r="30" />
        <ellipse cx="50" cy="50" rx="15" ry="30" />
        <path d="M 20 50 H 80" />
        <path d="M 25 35 C 40 30, 60 30, 75 35" />
        <path d="M 25 65 C 40 70, 60 70, 75 65" />
      </g>
      
      <g filter="url(#shadow)" transform="translate(0, 5)" font-family="'Arial Black', 'Impact', sans-serif" font-size="50" text-anchor="middle" dominant-baseline="central">
        <text x="50" y="46" fill="white">
            <tspan>T</tspan>
            <tspan dx="-15">D</tspan>
        </text>
        <text x="49" y="45" fill="url(#text-grad)">
            <tspan>T</tspan>
            <tspan dx="-15">D</tspan>
        </text>
      </g>
      
      <!-- Icons -->
      <g fill="#1A237E" opacity="0.7">
        <!-- Grad Cap -->
        <path transform="translate(68, 28) scale(0.8)" d="M 0,5 l 7,3.5 l 7,-3.5 l -7,-3.5 z M 1,6 v 4.5 c 0,2 2.5,3.5 6,3.5 s 6,-1.5 6,-3.5 V 6 l -6,3 z"/>
        <!-- Book -->
        <path transform="translate(22, 60) scale(0.8)" d="M2,2 L12,2 L12,12 L2,12 L2,2 M7,2 L7,12 M1,3 L13,3 M1,11 L13,11" stroke="#1A237E" stroke-width="1.5" fill="none"/>
      </g>


      <text x="50" y="85" font-family="'Segoe UI', 'Roboto', sans-serif" font-weight="600" font-size="9" fill="#1A237E" text-anchor="middle">THAYDAT.EDU.VN</text>
    </svg>